<mxfile host="Electron" modified="2025-08-05T16:55:46.556Z" agent="Mozilla/5.0 (Macintosh; Intel Mac OS X 10_15_7) AppleWebKit/537.36 (KHTML, like Gecko) draw.io/24.5.1 Chrome/124.0.6367.207 Electron/30.0.6 Safari/537.36" etag="i4_7JCwVGq8KCqT81GiB" version="24.5.1" type="device">
  <diagram name="Page-1" id="D-wNdfiMtmstZgZ292A2">
    <mxGraphModel dx="1419" dy="1052" grid="1" gridSize="10" guides="1" tooltips="1" connect="1" arrows="1" fold="1" page="1" pageScale="1" pageWidth="1169" pageHeight="827" math="0" shadow="0">
      <root>
        <mxCell id="0" />
        <mxCell id="1" parent="0" />
        <mxCell id="iIKXU1mGDg6LjVNMbq-y-1" value="DeviceDriver" style="rounded=0;whiteSpace=wrap;html=1;strokeColor=#FFB86C;" vertex="1" parent="1">
          <mxGeometry x="420" y="60" width="120" height="40" as="geometry" />
        </mxCell>
        <mxCell id="iIKXU1mGDg6LjVNMbq-y-2" value="HIDDevice" style="rounded=0;whiteSpace=wrap;html=1;strokeColor=#FFB86C;" vertex="1" parent="1">
          <mxGeometry x="440" y="110" width="120" height="40" as="geometry" />
        </mxCell>
        <mxCell id="iIKXU1mGDg6LjVNMbq-y-3" value="MCDUDevice" style="rounded=0;whiteSpace=wrap;html=1;strokeColor=#FFB86C;" vertex="1" parent="1">
          <mxGeometry x="460" y="160" width="120" height="40" as="geometry" />
        </mxCell>
        <mxCell id="iIKXU1mGDg6LjVNMbq-y-4" value="WinwingDevice" style="rounded=0;whiteSpace=wrap;html=1;strokeColor=#BD93F9;" vertex="1" parent="1">
          <mxGeometry x="110" y="120" width="120" height="40" as="geometry" />
        </mxCell>
        <mxCell id="iIKXU1mGDg6LjVNMbq-y-6" style="edgeStyle=orthogonalEdgeStyle;rounded=0;orthogonalLoop=1;jettySize=auto;html=1;exitX=1;exitY=0.25;exitDx=0;exitDy=0;entryX=0;entryY=0.5;entryDx=0;entryDy=0;" edge="1" parent="1" source="iIKXU1mGDg6LjVNMbq-y-5" target="iIKXU1mGDg6LjVNMbq-y-3">
          <mxGeometry relative="1" as="geometry" />
        </mxCell>
        <mxCell id="iIKXU1mGDg6LjVNMbq-y-11" style="edgeStyle=orthogonalEdgeStyle;rounded=0;orthogonalLoop=1;jettySize=auto;html=1;exitX=1;exitY=0.75;exitDx=0;exitDy=0;entryX=0;entryY=0.5;entryDx=0;entryDy=0;" edge="1" parent="1" source="iIKXU1mGDg6LjVNMbq-y-5" target="iIKXU1mGDg6LjVNMbq-y-10">
          <mxGeometry relative="1" as="geometry" />
        </mxCell>
        <mxCell id="iIKXU1mGDg6LjVNMbq-y-27" style="edgeStyle=orthogonalEdgeStyle;rounded=0;orthogonalLoop=1;jettySize=auto;html=1;exitX=0.5;exitY=1;exitDx=0;exitDy=0;entryX=0;entryY=0.5;entryDx=0;entryDy=0;" edge="1" parent="1" source="iIKXU1mGDg6LjVNMbq-y-5" target="iIKXU1mGDg6LjVNMbq-y-19">
          <mxGeometry relative="1" as="geometry" />
        </mxCell>
        <mxCell id="iIKXU1mGDg6LjVNMbq-y-28" style="edgeStyle=orthogonalEdgeStyle;rounded=0;orthogonalLoop=1;jettySize=auto;html=1;exitX=0.25;exitY=1;exitDx=0;exitDy=0;entryX=0;entryY=0.5;entryDx=0;entryDy=0;" edge="1" parent="1" source="iIKXU1mGDg6LjVNMbq-y-5" target="iIKXU1mGDg6LjVNMbq-y-21">
          <mxGeometry relative="1" as="geometry" />
        </mxCell>
        <mxCell id="iIKXU1mGDg6LjVNMbq-y-5" value="MCDU" style="rounded=0;whiteSpace=wrap;html=1;strokeColor=#BD93F9;" vertex="1" parent="1">
          <mxGeometry x="140" y="170" width="120" height="40" as="geometry" />
        </mxCell>
        <mxCell id="iIKXU1mGDg6LjVNMbq-y-30" style="edgeStyle=orthogonalEdgeStyle;rounded=0;orthogonalLoop=1;jettySize=auto;html=1;exitX=1;exitY=0.5;exitDx=0;exitDy=0;entryX=0;entryY=0.25;entryDx=0;entryDy=0;" edge="1" parent="1" source="iIKXU1mGDg6LjVNMbq-y-7" target="iIKXU1mGDg6LjVNMbq-y-29">
          <mxGeometry relative="1" as="geometry" />
        </mxCell>
        <mxCell id="iIKXU1mGDg6LjVNMbq-y-7" value="Aircraft" style="rounded=0;whiteSpace=wrap;html=1;strokeColor=#8BE9FD;" vertex="1" parent="1">
          <mxGeometry x="420" y="270" width="120" height="40" as="geometry" />
        </mxCell>
        <mxCell id="iIKXU1mGDg6LjVNMbq-y-8" value="ToLissAircraft" style="rounded=0;whiteSpace=wrap;html=1;strokeColor=#8BE9FD;" vertex="1" parent="1">
          <mxGeometry x="460" y="370" width="120" height="40" as="geometry" />
        </mxCell>
        <mxCell id="iIKXU1mGDg6LjVNMbq-y-9" value="LaminarAircraft" style="rounded=0;whiteSpace=wrap;html=1;strokeColor=#8BE9FD;" vertex="1" parent="1">
          <mxGeometry x="460" y="420" width="120" height="40" as="geometry" />
        </mxCell>
        <mxCell id="iIKXU1mGDg6LjVNMbq-y-10" value="MCDU&lt;span style=&quot;background-color: initial;&quot;&gt;Aircraft&lt;/span&gt;" style="rounded=0;whiteSpace=wrap;html=1;strokeColor=#8BE9FD;" vertex="1" parent="1">
          <mxGeometry x="440" y="320" width="120" height="40" as="geometry" />
        </mxCell>
        <mxCell id="iIKXU1mGDg6LjVNMbq-y-12" value="Action" style="rounded=0;whiteSpace=wrap;html=1;strokeColor=#FF5555;" vertex="1" parent="1">
          <mxGeometry x="560" y="500" width="120" height="40" as="geometry" />
        </mxCell>
        <mxCell id="iIKXU1mGDg6LjVNMbq-y-13" value="DeviceAction" style="rounded=0;whiteSpace=wrap;html=1;strokeColor=#FF5555;" vertex="1" parent="1">
          <mxGeometry x="580" y="550" width="120" height="40" as="geometry" />
        </mxCell>
        <mxCell id="iIKXU1mGDg6LjVNMbq-y-14" value="MCDUDeviceAction" style="rounded=0;whiteSpace=wrap;html=1;strokeColor=#FF5555;" vertex="1" parent="1">
          <mxGeometry x="600" y="600" width="120" height="40" as="geometry" />
        </mxCell>
        <mxCell id="iIKXU1mGDg6LjVNMbq-y-15" value="SimulatorAction" style="rounded=0;whiteSpace=wrap;html=1;strokeColor=#FF5555;" vertex="1" parent="1">
          <mxGeometry x="580" y="670" width="120" height="40" as="geometry" />
        </mxCell>
        <mxCell id="iIKXU1mGDg6LjVNMbq-y-16" value="MCDUSimulatorAction" style="rounded=0;whiteSpace=wrap;html=1;strokeColor=#FF5555;" vertex="1" parent="1">
          <mxGeometry x="600" y="720" width="120" height="40" as="geometry" />
        </mxCell>
        <mxCell id="iIKXU1mGDg6LjVNMbq-y-17" value="Report" style="rounded=0;whiteSpace=wrap;html=1;strokeColor=#F1FA8C;" vertex="1" parent="1">
          <mxGeometry x="280" y="500" width="120" height="40" as="geometry" />
        </mxCell>
        <mxCell id="iIKXU1mGDg6LjVNMbq-y-18" value="DeviceReport" style="rounded=0;whiteSpace=wrap;html=1;strokeColor=#F1FA8C;" vertex="1" parent="1">
          <mxGeometry x="300" y="550" width="120" height="40" as="geometry" />
        </mxCell>
        <mxCell id="iIKXU1mGDg6LjVNMbq-y-24" style="edgeStyle=orthogonalEdgeStyle;rounded=0;orthogonalLoop=1;jettySize=auto;html=1;exitX=1;exitY=0.5;exitDx=0;exitDy=0;entryX=0;entryY=0.5;entryDx=0;entryDy=0;" edge="1" parent="1" source="iIKXU1mGDg6LjVNMbq-y-19" target="iIKXU1mGDg6LjVNMbq-y-14">
          <mxGeometry relative="1" as="geometry" />
        </mxCell>
        <mxCell id="iIKXU1mGDg6LjVNMbq-y-19" value="MCDUDeviceReport" style="rounded=0;whiteSpace=wrap;html=1;strokeColor=#F1FA8C;" vertex="1" parent="1">
          <mxGeometry x="320" y="600" width="120" height="40" as="geometry" />
        </mxCell>
        <mxCell id="iIKXU1mGDg6LjVNMbq-y-20" value="SimulatorReport" style="rounded=0;whiteSpace=wrap;html=1;strokeColor=#F1FA8C;" vertex="1" parent="1">
          <mxGeometry x="300" y="670" width="120" height="40" as="geometry" />
        </mxCell>
        <mxCell id="iIKXU1mGDg6LjVNMbq-y-26" style="edgeStyle=orthogonalEdgeStyle;rounded=0;orthogonalLoop=1;jettySize=auto;html=1;entryX=0;entryY=0.5;entryDx=0;entryDy=0;" edge="1" parent="1" source="iIKXU1mGDg6LjVNMbq-y-21" target="iIKXU1mGDg6LjVNMbq-y-16">
          <mxGeometry relative="1" as="geometry" />
        </mxCell>
        <mxCell id="iIKXU1mGDg6LjVNMbq-y-21" value="MCDUSimulatorReport" style="rounded=0;whiteSpace=wrap;html=1;strokeColor=#F1FA8C;" vertex="1" parent="1">
          <mxGeometry x="320" y="720" width="120" height="40" as="geometry" />
        </mxCell>
        <mxCell id="iIKXU1mGDg6LjVNMbq-y-31" style="edgeStyle=orthogonalEdgeStyle;rounded=0;orthogonalLoop=1;jettySize=auto;html=1;entryX=1;entryY=0.5;entryDx=0;entryDy=0;exitX=0;exitY=0.75;exitDx=0;exitDy=0;" edge="1" parent="1" source="iIKXU1mGDg6LjVNMbq-y-29" target="iIKXU1mGDg6LjVNMbq-y-16">
          <mxGeometry relative="1" as="geometry" />
        </mxCell>
        <mxCell id="iIKXU1mGDg6LjVNMbq-y-32" style="edgeStyle=orthogonalEdgeStyle;rounded=0;orthogonalLoop=1;jettySize=auto;html=1;entryX=1;entryY=0.5;entryDx=0;entryDy=0;" edge="1" parent="1" source="iIKXU1mGDg6LjVNMbq-y-29" target="iIKXU1mGDg6LjVNMbq-y-14">
          <mxGeometry relative="1" as="geometry">
            <Array as="points">
              <mxPoint x="750" y="310" />
              <mxPoint x="750" y="620" />
            </Array>
          </mxGeometry>
        </mxCell>
        <mxCell id="iIKXU1mGDg6LjVNMbq-y-29" value="Aircraft&lt;div&gt;Configuration&lt;/div&gt;&lt;div&gt;File&lt;/div&gt;" style="shape=document;whiteSpace=wrap;html=1;boundedLbl=1;strokeColor=#50FA7B;" vertex="1" parent="1">
          <mxGeometry x="820" y="270" width="120" height="80" as="geometry" />
        </mxCell>
      </root>
    </mxGraphModel>
  </diagram>
</mxfile>
